<svg id="Capa_1" enable-background="new 0 0 512 512" height="512" viewBox="0 0 512 512" width="512" xmlns="http://www.w3.org/2000/svg"><g><g><path d="m512 256c0 27.029-17.938 50.878-25.807 75.267-8.156 25.277-7.855 55.125-23.071 76.165-15.368 21.25-43.774 30.116-64.892 45.581-20.908 15.312-37.983 39.848-63.102 48.055-24.236 7.919-52.268-1.572-79.128-1.572s-54.892 9.491-79.128 1.572c-25.119-8.207-42.194-32.743-63.102-48.056-21.117-15.465-49.523-24.331-64.892-45.581-15.216-21.04-14.915-50.888-23.071-76.165-7.869-24.388-25.807-48.237-25.807-75.266s17.938-50.878 25.807-75.267c8.156-25.277 7.855-55.125 23.071-76.165 15.368-21.25 43.774-30.116 64.892-45.581 20.908-15.312 37.983-39.848 63.102-48.055 24.236-7.919 52.269 1.572 79.128 1.572s54.892-9.491 79.128-1.572c25.119 8.207 42.194 32.743 63.102 48.056 21.117 15.465 49.523 24.331 64.892 45.581 15.216 21.04 14.915 50.888 23.071 76.165 7.869 24.388 25.807 48.237 25.807 75.266z" fill="#d1a08f"/><g fill="#c68d7a"><path d="m486.193 180.733c-8.156-25.277-7.855-55.125-23.071-76.165-15.368-21.25-43.775-30.116-64.892-45.581-20.908-15.312-37.983-39.848-63.102-48.055-12.391-4.049-25.775-3.544-39.486-2.086 2.906.492 5.77 1.168 8.581 2.086 25.119 8.207 42.194 32.743 63.102 48.055 21.117 15.465 49.523 24.331 64.892 45.581 15.216 21.04 14.915 50.888 23.071 76.165 7.869 24.389 25.807 48.239 25.807 75.267 0 27.029-17.938 50.878-25.807 75.267-8.156 25.277-7.855 55.125-23.071 76.165-15.368 21.25-43.775 30.116-64.892 45.581-20.908 15.312-37.983 39.848-63.102 48.055-2.811.919-5.676 1.594-8.582 2.086 13.712 1.458 27.096 1.962 39.487-2.086 25.119-8.207 42.194-32.743 63.102-48.055 21.117-15.465 49.523-24.331 64.892-45.581 15.216-21.04 14.915-50.888 23.071-76.165 7.869-24.389 25.807-48.238 25.807-75.267s-17.938-50.878-25.807-75.267z"/><path d="m225.095 499.497c-13.127 0-26.534 2.265-39.641 3.658 17.369 2.941 36.285-.978 55.094-2.809-5.171-.503-10.334-.849-15.453-.849z"/></g><g><path d="m366.659 108.121 4.874 24.753c1.257 6.386-2.7 12.636-8.979 14.182l-51.366 12.647c-7.567 1.863-14.881-3.87-14.945-11.716l-.306-37.4c-.055-6.757 5.368-12.264 12.077-12.264h46.798c5.764 0 10.725 4.103 11.847 9.798z" fill="#fddeb0"/><path d="m371.532 132.873-4.874-24.753c-1.121-5.695-6.082-9.798-11.847-9.798h-30.905c5.764 0 10.725 4.103 11.847 9.798l4.731 44.369 22.07-5.434c6.278-1.546 10.236-7.796 8.978-14.182z" fill="#fdd79b"/><path d="m401.373 218.869-11.743 27.769c-2.348 5.552 1.34 11.802 7.305 12.378l39.572 3.822c4.534.438 8.659-2.658 9.538-7.159l6.17-31.591c1.077-5.513-3.113-10.645-8.692-10.645h-33.999c-3.552 0-6.76 2.136-8.151 5.426z" fill="#fddeb0"/><path d="m443.522 213.443h-30.905c5.579 0 9.769 5.131 8.692 10.645l-6.171 31.591c-.376 1.926-1.35 3.591-2.692 4.836l24.059 2.324c4.534.438 8.659-2.658 9.538-7.159l6.171-31.591c1.078-5.515-3.113-10.646-8.692-10.646z" fill="#fdd79b"/><path d="m116.749 116.035-14.669 34.687c-2.933 6.935 1.674 14.742 9.124 15.461l49.43 4.774c5.663.547 10.816-3.32 11.914-8.943l7.707-39.46c1.345-6.887-3.889-13.296-10.858-13.296h-42.467c-4.436-.001-8.442 2.666-10.181 6.777z" fill="#fddeb0"/><path d="m169.398 109.257h-30.905c6.969 0 12.203 6.41 10.858 13.296l-7.707 39.46c-.541 2.769-2.068 5.108-4.151 6.708l23.143 2.235c5.663.547 10.816-3.32 11.914-8.943l7.708-39.46c1.343-6.887-3.891-13.296-10.86-13.296z" fill="#fdd79b"/><path d="m247.438 233.1-11.744 27.769c-2.348 5.552 1.34 11.802 7.305 12.378l39.572 3.822c4.534.438 8.659-2.658 9.538-7.159l6.17-31.591c1.077-5.513-3.113-10.645-8.692-10.645h-33.999c-3.551 0-6.758 2.135-8.15 5.426z" fill="#fddeb0"/><path d="m289.588 227.674h-30.905c5.579 0 9.769 5.131 8.692 10.645l-6.17 31.591c-.376 1.926-1.35 3.591-2.692 4.836l24.059 2.324c4.534.438 8.659-2.658 9.538-7.159l6.17-31.591c1.077-5.515-3.113-10.646-8.692-10.646z" fill="#fdd79b"/><path d="m67.98 255.61-12.236 28.933c-2.446 5.785 1.396 12.297 7.611 12.897l41.231 3.982c4.724.456 9.022-2.77 9.938-7.46l6.429-32.915c1.122-5.744-3.244-11.091-9.057-11.091h-35.424c-3.7.001-7.042 2.226-8.492 5.654z" fill="#fddeb0"/><path d="m111.896 249.957h-30.905c5.813 0 10.179 5.346 9.057 11.091l-6.429 32.915c-.403 2.065-1.463 3.844-2.925 5.152l23.892 2.307c4.724.456 9.022-2.77 9.938-7.46l6.429-32.915c1.122-5.744-3.244-11.09-9.057-11.09z" fill="#fdd79b"/><path d="m246.42 366.262-22.284 52.693c-4.456 10.536 2.543 22.395 13.861 23.488l75.09 7.252c8.603.831 16.43-5.044 18.099-13.585l11.709-59.945c2.043-10.462-5.908-20.199-16.494-20.199h-64.514c-6.74 0-12.827 4.052-15.467 10.296z" fill="#fddeb0"/><path d="m326.4 355.966h-30.905c10.586 0 18.537 9.737 16.494 20.199l-11.709 59.945c-.991 5.075-4.166 9.194-8.377 11.539l21.184 2.046c8.603.831 16.43-5.044 18.099-13.585l11.709-59.945c2.042-10.462-5.909-20.199-16.495-20.199z" fill="#fdd79b"/></g></g><g fill="#fddeb0"><circle cx="410.877" cy="342.913" r="18.043"/><circle cx="164.006" cy="388.637" r="18.043"/><circle cx="249.902" cy="71.857" r="18.043"/></g></g></svg>