<svg id="Capa_1" enable-background="new 0 0 512 512" height="512" viewBox="0 0 512 512" width="512" xmlns="http://www.w3.org/2000/svg"><g><g><path d="m14.246 505.381c15.266 11.071 36.463 7.796 47.343-7.317l28.786-39.983 9.587-27.238 21.981-16.607 37.706-52.372 7.454-24.379 24.113-19.467 37.706-52.372 9.396-28.332 22.171-15.513 37.706-52.372 8.208-24.852 23.36-18.994 27.461-38.142c2.316-3.217 4.966-6.053 7.87-8.497 7.353-6.187 15.939-18.196 25.261-19.153 9.85-1.011 20.476 9.344 29.559 14.63 1.407.819 2.787 1.716 4.133 2.692 4.477 3.247 8.24 7.118 11.254 11.405 5.735 8.157 13.325 18.709 13.397 28.44s-7.371 18.641-13.442 27.074l-21.69 30.126c-10.88 15.112-7.325 36.339 7.942 47.41 15.266 11.071 36.463 7.796 47.343-7.317l21.69-30.126c9.848-13.678 16.221-28.846 19.294-44.452 1.663-8.442-4.776-17.013-5.017-25.546-.272-9.643 5.394-19.238 2.767-28.545-6.922-24.526-21.879-47.053-44.138-63.195-51.994-37.709-124.447-26.512-161.507 24.961l-27.46 38.142-8.77 27.865-22.798 15.981-37.706 52.372-3.896 31.305-27.672 12.541-37.706 52.372-8.739 29.393-22.829 14.452-37.706 52.372-10.792 25.343-20.775 18.502-28.786 39.983c-10.881 15.112-7.325 36.339 7.941 47.41z" fill="#f58a97"/></g><g fill="#f07281"><path d="m393.144 61.662c-21.514-15.602-51.491-10.97-66.824 10.327l-295.636 410.623c-6.068 8.429-15.347 13.171-25.015 13.799 2.231 3.388 5.096 6.445 8.578 8.97 15.266 11.071 36.463 7.796 47.343-7.317l28.786-39.983 9.587-27.238 21.981-16.607 37.706-52.372 11.367-25.552 20.2-18.293 37.706-52.372 9.396-28.332 22.171-15.513 37.706-52.372 8.208-24.852 23.36-18.994 27.461-38.142c2.316-3.217 4.966-6.053 7.871-8.496 5.23-4.399 9.1-9.497 15.515-11.278 5.696-1.583 15.213-4.063 12.533-6.006z"/><path d="m463.451 22.388c-10.195-7.394-21.179-12.899-32.527-16.598.542.379 1.084.755 1.621 1.145 51.998 37.71 64.152 110.265 27.093 161.738l-21.69 30.126c-6.068 8.429-15.347 13.171-25.015 13.799 2.231 3.388 5.096 6.445 8.578 8.97 15.266 11.071 36.463 7.795 47.343-7.317l21.69-30.126c9.848-13.678 16.221-28.845 19.294-44.452 1.887-9.582-12.923-19.329-13.483-28.999-.491-8.478 13.546-16.897 11.233-25.092-6.921-24.524-21.879-47.052-44.137-63.194z"/></g><path d="m35.091 417.989 55.285 40.093 31.567-43.845-55.285-40.094z" fill="#ffe179"/><path d="m90.376 458.082 31.567-43.845-27.613-20.026-31.568 43.845z" fill="#fbd268"/><path d="m104.365 321.771 55.284 40.093 31.568-43.845-55.285-40.094z" fill="#ffe179"/><path d="m163.604 297.993-31.568 43.846 27.614 20.025 31.567-43.845z" fill="#fbd268"/><path d="m173.638 225.553 55.285 40.094 31.568-43.846-55.285-40.093z" fill="#ffe179"/><path d="m228.923 265.647 31.568-43.846-27.614-20.025-31.567 43.845z" fill="#fbd268"/><path d="m242.912 129.335 55.285 40.094 31.568-43.846-55.285-40.093z" fill="#ffe179"/><path d="m270.584 149.403 27.613 20.026 31.567-43.846-27.613-20.025z" fill="#fbd268"/><path d="m398.724.128 21.192 74.295c-17.68-10.288-39.694-8.195-54.815 4.529l-19.387-67.964c16.529-7.761 34.738-11.464 53.01-10.86z" fill="#ffe179"/><path d="m393.144 61.662c-10.677-7.743-23.437-10.497-35.459-8.709l7.416 25.998c.15-.126 12.281-10.701 29.221-11.044 2.023-.057 4.054.008 6.081.207-2.16-2.345-4.582-4.51-7.259-6.452z" fill="#fbd268"/><g><path d="m507.581 85.585c4.951 17.543 5.798 36.107 2.256 54.089l-73.65 2.997c11.16-16.692 10.271-38.265-.894-54.144z" fill="#ffe179"/></g><path d="m474.219 141.124 35.619-1.449c3.541-17.982 2.694-36.545-2.256-54.088v-.001l-27.494 1.119c2.391 18.155.528 36.84-5.869 54.419z" fill="#fbd268"/></g></svg>